<?xml version="1.0" encoding="UTF-8"?>
<svg width="160" height="90" viewBox="0 0 160 90" fill="none" xmlns="http://www.w3.org/2000/svg">
  <rect width="160" height="90" rx="0" fill="#B3E5FC"/>
  <ellipse cx="120" cy="30" rx="22" ry="10" fill="#FFF9C4"/>
  <ellipse cx="40" cy="70" rx="32" ry="12" fill="#A5D6A7"/>
  <ellipse cx="80" cy="60" rx="28" ry="10" fill="#81C784"/>
  <ellipse cx="120" cy="70" rx="24" ry="8" fill="#66BB6A"/>
  <circle cx="30" cy="40" r="14" fill="#388E3C"/>
  <rect x="25" y="50" width="10" height="18" rx="3" fill="#8D6E63"/>
  <ellipse cx="30" cy="50" rx="14" ry="8" fill="#43A047"/>
  <ellipse cx="130" cy="50" rx="8" ry="4" fill="#43A047"/>
  <ellipse cx="80" cy="30" rx="10" ry="5" fill="#FFF" fill-opacity="0.7"/>
  <ellipse cx="100" cy="40" rx="6" ry="3" fill="#FFF" fill-opacity="0.5"/>
  <ellipse cx="60" cy="35" rx="5" ry="2.5" fill="#FFF" fill-opacity="0.5"/>
  <!-- Musical Notes and Wavy Lines -->
  <g>
    <!-- Wavy Note Lines -->
    <path d="M20 22 Q40 18, 60 22 T100 22 T140 22" stroke="#90A4AE" stroke-width="1.2" fill="none"/>
    <path d="M20 32 Q40 28, 60 32 T100 32 T140 32" stroke="#B0BEC5" stroke-width="1.2" fill="none"/>
    <path d="M20 42 Q40 38, 60 42 T100 42 T140 42" stroke="#CFD8DC" stroke-width="1.2" fill="none"/>
    <path d="M20 52 Q40 48, 60 52 T100 52 T140 52" stroke="#B3E5FC" stroke-width="1.2" fill="none"/>
    <!-- Notes on Lines -->
    <!-- Note 1 on first line -->
    <ellipse cx="50" cy="22" rx="3" ry="4" fill="#3949AB"/>
    <rect x="52" y="12" width="1.5" height="10" fill="#3949AB"/>
    <path d="M53 12 Q56 10, 54 18" stroke="#3949AB" stroke-width="1" fill="none"/>
    <!-- Note 2 on second line -->
    <ellipse cx="90" cy="32" rx="2.5" ry="3.5" fill="#D81B60"/>
    <rect x="91" y="22" width="1.2" height="10" fill="#D81B60"/>
    <path d="M92 22 Q95 20, 93 27" stroke="#D81B60" stroke-width="1" fill="none"/>
    <!-- Note 3 on third line -->
    <ellipse cx="70" cy="42" rx="2.5" ry="3.5" fill="#00897B"/>
    <rect x="71" y="32" width="1.2" height="10" fill="#00897B"/>
    <path d="M72 32 Q75 30, 73 37" stroke="#00897B" stroke-width="1" fill="none"/>
    <!-- Note 4 on fourth line -->
    <ellipse cx="120" cy="52" rx="2.5" ry="3.5" fill="#F9A825"/>
    <rect x="121" y="42" width="1.2" height="10" fill="#F9A825"/>
    <path d="M122 42 Q125 40, 123 47" stroke="#F9A825" stroke-width="1" fill="none"/>
  </g>
</svg> 